<svg xmlns="http://www.w3.org/2000/svg" viewBox="0 0 147 190.03"><defs><style>.cls-1{fill:#4e5d96;}.cls-2{fill:#f8a0b8;}.cls-3{fill:none;}</style></defs><g id="Layer_2" data-name="Layer 2"><g id="Layer_1-2" data-name="Layer 1"><path class="cls-1" d="M4.28,157.06V169H1.56v-11.9Z"/><path class="cls-1" d="M12,166.26l2.35-1.36a2.49,2.49,0,0,0,2.5,1.65c1.29,0,1.61-.51,1.61-1,0-.73-.68-1-2.46-1.51s-3.5-1.35-3.5-3.63a3.72,3.72,0,0,1,4-3.62,4.61,4.61,0,0,1,4.35,2.69l-2.29,1.34a2.08,2.08,0,0,0-2.06-1.37c-.85,0-1.27.42-1.27.9s.28.91,2.14,1.48,3.82,1.17,3.82,3.68c0,2.3-1.83,3.66-4.42,3.66A4.69,4.69,0,0,1,12,166.26Z"/><path class="cls-1" d="M28.42,163a6.19,6.19,0,1,1,6.19,6.19A6.14,6.14,0,0,1,28.42,163Zm9.65,0a3.47,3.47,0,1,0-3.46,3.54A3.38,3.38,0,0,0,38.07,163Z"/><path class="cls-1" d="M55.75,166.34V169h-7v-11.9H51.5v9.28Z"/><path class="cls-1" d="M70.71,167.09H66.29L65.7,169h-3l4-11.9h3.47l4,11.9h-3Zm-.81-2.55-1.4-4.37-1.39,4.37Z"/><path class="cls-1" d="M88.9,159.68H85.84V169H83.12v-9.28H80.06v-2.62H88.9Z"/><path class="cls-1" d="M99.27,157.06V169H96.55v-11.9Z"/><path class="cls-1" d="M107.26,163a6.19,6.19,0,1,1,6.19,6.19A6.14,6.14,0,0,1,107.26,163Zm9.66,0a3.47,3.47,0,1,0-3.47,3.54A3.38,3.38,0,0,0,116.92,163Z"/><path class="cls-1" d="M137,157.06V169h-2l-4.59-6.46V169h-2.72v-11.9h2l4.59,6.46v-6.46Z"/><path class="cls-2" d="M52.39,187.63l.84-.49a2.67,2.67,0,0,0,2.82,1.94c1.48,0,2.31-.72,2.31-1.77s-1-1.5-2.41-2c-1.6-.54-3.14-1-3.14-2.76a2.74,2.74,0,0,1,3-2.69A3.46,3.46,0,0,1,59.06,182l-.83.46a2.47,2.47,0,0,0-2.41-1.62c-1.17,0-2,.62-2,1.69s.84,1.41,2.17,1.84c1.78.59,3.38,1.09,3.38,2.91S58,190,56,190A3.6,3.6,0,0,1,52.39,187.63Z"/><path class="cls-2" d="M72.15,181h-3v8.88h-1V181h-3v-.92h7Z"/><path class="cls-2" d="M83.78,187.45H79.13l-.91,2.41h-1l3.77-9.8h1l3.77,9.8h-1Zm-.35-.92-2-5.26-2,5.26Z"/><path class="cls-2" d="M97.77,181h-3v8.88h-1V181h-3v-.92h7Z"/><path class="cls-2" d="M105.46,180.06v9.8h-1v-9.8Z"/><path class="cls-2" d="M112.46,185a5.07,5.07,0,1,1,5.07,5.07A5,5,0,0,1,112.46,185Zm9.16,0a4.09,4.09,0,1,0-4.09,4.12A4.05,4.05,0,0,0,121.62,185Z"/><path class="cls-2" d="M136.88,180.06v9.8H136l-5.46-8v8h-1v-9.8h.84l5.46,8v-8Z"/><path class="cls-3" d="M86,32.5a30.34,30.34,0,0,1,3.39-14A55,55,0,1,0,125,70a56.15,56.15,0,0,0-.59-8A30.51,30.51,0,0,1,86,32.5Z"/><path class="cls-2" d="M89.39,18.54A30.49,30.49,0,0,0,116.5,63a30.8,30.8,0,0,0,7.91-1A55.16,55.16,0,0,0,89.39,18.54Z"/><path class="cls-2" d="M138.13,54a30.5,30.5,0,0,0-38-47.2A70.29,70.29,0,0,1,138.13,54Z"/><path class="cls-1" d="M124.41,62a56.15,56.15,0,0,1,.59,8A55,55,0,1,1,89.39,18.54,30.66,30.66,0,0,1,100.08,6.8,70.13,70.13,0,1,0,138.13,54,30.42,30.42,0,0,1,124.41,62Z"/><path d="M89.39,18.54a55.16,55.16,0,0,1,35,43.42,30.42,30.42,0,0,0,13.72-8,70.29,70.29,0,0,0-38-47.2A30.66,30.66,0,0,0,89.39,18.54Z"/></g></g></svg>