<svg xmlns="http://www.w3.org/2000/svg" viewBox="0 0 135.42 138.54"><defs><style>.cls-1{fill:#4e5d96;}.cls-2{fill:#f8a0b8;}.cls-3{fill:none;}</style></defs><g id="Layer_2" data-name="Layer 2"><g id="Layer_1-2" data-name="Layer 1"><path class="cls-1" d="M2.72,105.57v11.9H0v-11.9Z"/><path class="cls-1" d="M10.45,114.77l2.35-1.36a2.5,2.5,0,0,0,2.5,1.65c1.29,0,1.61-.51,1.61-1,0-.73-.68-1-2.46-1.51S11,111.24,11,109a3.72,3.72,0,0,1,4-3.62A4.6,4.6,0,0,1,19.29,108L17,109.37A2.09,2.09,0,0,0,14.94,108c-.85,0-1.27.42-1.27.9s.29.92,2.14,1.48,3.82,1.17,3.82,3.69c0,2.29-1.83,3.65-4.42,3.65A4.69,4.69,0,0,1,10.45,114.77Z"/><path class="cls-1" d="M26.86,111.52a6.19,6.19,0,1,1,6.19,6.19A6.13,6.13,0,0,1,26.86,111.52Zm9.65,0a3.47,3.47,0,1,0-3.46,3.54A3.38,3.38,0,0,0,36.51,111.52Z"/><path class="cls-1" d="M54.2,114.86v2.61h-7v-11.9H50v9.29Z"/><path class="cls-1" d="M69.16,115.6H64.74l-.6,1.87h-3l4-11.9h3.47l4,11.9h-3Zm-.82-2.55L67,108.69l-1.4,4.36Z"/><path class="cls-1" d="M87.34,108.19h-3v9.28H81.57v-9.28H78.51v-2.62h8.83Z"/><path class="cls-1" d="M97.71,105.57v11.9H95v-11.9Z"/><path class="cls-1" d="M105.71,111.52a6.19,6.19,0,1,1,6.18,6.19A6.13,6.13,0,0,1,105.71,111.52Zm9.65,0a3.47,3.47,0,1,0-3.47,3.54A3.38,3.38,0,0,0,115.36,111.52Z"/><path class="cls-1" d="M135.42,105.57v11.9h-2L128.79,111v6.46h-2.72v-11.9h2L132.7,112v-6.46Z"/><path class="cls-2" d="M29,136.15l.84-.49a2.67,2.67,0,0,0,2.82,1.93c1.48,0,2.31-.72,2.31-1.77s-1-1.49-2.41-2c-1.6-.53-3.14-.95-3.14-2.76a2.74,2.74,0,0,1,3-2.69,3.43,3.43,0,0,1,3.24,2.12l-.83.46a2.48,2.48,0,0,0-2.41-1.63c-1.17,0-2,.62-2,1.7s.84,1.4,2.17,1.83c1.78.59,3.38,1.1,3.38,2.92s-1.34,2.74-3.31,2.74A3.61,3.61,0,0,1,29,136.15Z"/><path class="cls-2" d="M44.32,132.27v4.24c0,1.21.66,1.11,2,1.05v.81c-1.89.28-2.94-.18-2.94-1.86v-4.24H41.93v-.9H43.4v-1.68l.92-.28v2h2v.9Z"/><path class="cls-2" d="M59.73,131.37v7H58.8V137A3.24,3.24,0,0,1,56,138.54a3.67,3.67,0,0,1,0-7.34,3.24,3.24,0,0,1,2.83,1.54v-1.37Zm-.93,3.5A2.76,2.76,0,1,0,56,137.65,2.73,2.73,0,0,0,58.8,134.87Z"/><path class="cls-2" d="M68.7,132.27v4.24c0,1.21.65,1.11,2,1.05v.81c-1.89.28-2.94-.18-2.94-1.86v-4.24H66.3v-.9h1.47v-1.68l.93-.28v2h2v.9Z"/><path class="cls-2" d="M77.36,129.21a.68.68,0,1,1,.67.68A.68.68,0,0,1,77.36,129.21Zm.21,2.16h.93v7h-.93Z"/><path class="cls-2" d="M85.35,134.87A3.69,3.69,0,1,1,89,138.54,3.65,3.65,0,0,1,85.35,134.87Zm6.45,0A2.76,2.76,0,1,0,89,137.65,2.74,2.74,0,0,0,91.8,134.87Z"/><path class="cls-2" d="M105.6,134.07v4.3h-.92v-4.3a1.77,1.77,0,0,0-1.91-2c-1.23,0-2.27.73-2.27,2.6v3.67h-.92v-7h.92v1.09a2.78,2.78,0,0,1,5.1,1.61Z"/><path class="cls-3" d="M38.94,27.58v35h57V50a23.51,23.51,0,0,1-17.37-34L67.44,8.43Z"/><rect class="cls-3" x="38.94" y="69.56" width="57" height="8.67"/><path class="cls-2" d="M95.94,50V27.58L78.57,15.91A23.51,23.51,0,0,0,95.94,50Z"/><path class="cls-2" d="M122.94,26.72A23.5,23.5,0,0,0,82.69,10.24l20.25,13.61V50A23.5,23.5,0,0,0,122.94,26.72Z"/><path class="cls-1" d="M95.94,50v12.6h-57v-35L67.44,8.43l11.13,7.48a23.8,23.8,0,0,1,4.12-5.67L67.44,0,31.94,23.85V69.06h7v.5h57v-.5h7V50a23.69,23.69,0,0,1-7,0Z"/><path d="M82.69,10.24a23.8,23.8,0,0,0-4.12,5.67L95.94,27.58V50a23.69,23.69,0,0,0,7,0V23.85Z"/><polygon class="cls-1" points="95.94 78.23 38.94 78.23 38.94 69.56 31.94 69.56 31.94 85.23 102.94 85.23 102.94 69.56 95.94 69.56 95.94 78.23"/><rect class="cls-1" x="95.94" y="69.06" width="7" height="0.5"/><rect class="cls-1" x="31.94" y="69.06" width="7" height="0.5"/></g></g></svg>