<svg xmlns="http://www.w3.org/2000/svg" viewBox="0 0 151.06 190.03"><defs><style>.cls-1{fill:#4e5d96;}.cls-2{fill:#f8a0b8;}</style></defs><g id="Layer_2" data-name="Layer 2"><g id="Layer_1-2" data-name="Layer 1"><path class="cls-1" d="M18.36,157.06V169H15.64v-11.9Z"/><path class="cls-1" d="M26.09,166.26l2.35-1.36a2.49,2.49,0,0,0,2.5,1.65c1.29,0,1.61-.51,1.61-1,0-.73-.68-1-2.46-1.52s-3.5-1.34-3.5-3.62a3.72,3.72,0,0,1,4-3.62,4.63,4.63,0,0,1,4.35,2.69l-2.29,1.34a2.08,2.08,0,0,0-2.06-1.37c-.85,0-1.28.42-1.28.9s.29.91,2.15,1.48,3.82,1.17,3.82,3.68c0,2.3-1.83,3.66-4.42,3.66A4.69,4.69,0,0,1,26.09,166.26Z"/><path class="cls-1" d="M42.5,163a6.19,6.19,0,1,1,6.18,6.19A6.14,6.14,0,0,1,42.5,163Zm9.65,0a3.47,3.47,0,1,0-3.47,3.54A3.38,3.38,0,0,0,52.15,163Z"/><path class="cls-1" d="M69.83,166.34V169h-7v-11.9h2.72v9.28Z"/><path class="cls-1" d="M84.79,167.09H80.37L79.78,169h-3l4-11.9h3.47l4,11.9h-3ZM84,164.54l-1.4-4.37-1.39,4.37Z"/><path class="cls-1" d="M103,159.68H99.92V169H97.2v-9.28H94.14v-2.62H103Z"/><path class="cls-1" d="M113.35,157.06V169h-2.72v-11.9Z"/><path class="cls-1" d="M121.34,163a6.19,6.19,0,1,1,6.19,6.19A6.14,6.14,0,0,1,121.34,163Zm9.66,0a3.47,3.47,0,1,0-3.47,3.54A3.38,3.38,0,0,0,131,163Z"/><path class="cls-1" d="M151.06,157.06V169h-2l-4.59-6.46V169h-2.72v-11.9h2l4.59,6.46v-6.46Z"/><path class="cls-2" d="M66.47,187.63l.84-.49a2.66,2.66,0,0,0,2.81,1.94c1.49,0,2.32-.72,2.32-1.77s-1-1.5-2.41-2c-1.6-.54-3.14-1-3.14-2.76a2.74,2.74,0,0,1,3-2.69A3.46,3.46,0,0,1,73.14,182l-.83.46a2.47,2.47,0,0,0-2.41-1.62c-1.18,0-2,.62-2,1.69s.84,1.41,2.17,1.84c1.78.59,3.38,1.09,3.38,2.91S72.07,190,70.11,190A3.59,3.59,0,0,1,66.47,187.63Z"/><path class="cls-2" d="M86.23,181h-3v8.88h-1V181h-3v-.92h7Z"/><path class="cls-2" d="M97.86,187.45H93.21l-.91,2.41h-1l3.77-9.8h1l3.77,9.8h-1Zm-.35-.92-2-5.26-2,5.26Z"/><path class="cls-2" d="M111.85,181h-3v8.88h-1V181h-3v-.92h7Z"/><path class="cls-2" d="M119.54,180.06v9.8h-1v-9.8Z"/><path class="cls-2" d="M126.54,185a5.07,5.07,0,1,1,5.07,5.07A5,5,0,0,1,126.54,185Zm9.16,0a4.09,4.09,0,1,0-4.09,4.12A4.05,4.05,0,0,0,135.7,185Z"/><path class="cls-2" d="M151,180.06v9.8h-.84l-5.46-8v8h-1v-9.8h.84l5.46,8v-8Z"/><path class="cls-1" d="M138.13,54A69.94,69.94,0,1,0,140,70,70.29,70.29,0,0,0,138.13,54ZM70,125a55,55,0,1,1,54.41-63,56.15,56.15,0,0,1,.59,8A55.06,55.06,0,0,1,70,125Z"/><path class="cls-2" d="M70.5,51A19.4,19.4,0,0,0,60,54.07a19.67,19.67,0,0,0-6.84,7.5A19.51,19.51,0,0,0,70.5,90a19.11,19.11,0,0,0,5-.67A19.5,19.5,0,0,0,70.5,51Z"/></g></g></svg>