<svg xmlns="http://www.w3.org/2000/svg" viewBox="0 0 148.47 191.53"><defs><style>.cls-1{fill:none;}.cls-2{fill:#f8a0b8;}.cls-3{fill:#4e5d96;}</style></defs><g id="Layer_2" data-name="Layer 2"><g id="Layer_1-2" data-name="Layer 1"><path class="cls-1" d="M86,32.5a30.34,30.34,0,0,1,3.39-14A55,55,0,1,0,125,70a56.15,56.15,0,0,0-.59-8A30.51,30.51,0,0,1,86,32.5Z"/><path class="cls-2" d="M89.39,18.54A30.49,30.49,0,0,0,116.5,63a30.8,30.8,0,0,0,7.91-1A55.16,55.16,0,0,0,89.39,18.54Z"/><path class="cls-2" d="M138.13,54a30.5,30.5,0,0,0-38-47.2A70.29,70.29,0,0,1,138.13,54Z"/><path class="cls-3" d="M124.41,62a56.15,56.15,0,0,1,.59,8A55,55,0,1,1,89.39,18.54,30.66,30.66,0,0,1,100.08,6.8,70.13,70.13,0,1,0,138.13,54,30.42,30.42,0,0,1,124.41,62Z"/><path d="M89.39,18.54a55.16,55.16,0,0,1,35,43.42,30.42,30.42,0,0,0,13.72-8,70.29,70.29,0,0,0-38-47.2A30.66,30.66,0,0,0,89.39,18.54Z"/><path class="cls-3" d="M15.56,158.56v11.9H12.84v-11.9Z"/><path class="cls-3" d="M23.3,167.76l2.34-1.36a2.51,2.51,0,0,0,2.5,1.65c1.29,0,1.62-.51,1.62-1,0-.73-.68-1-2.47-1.52s-3.5-1.34-3.5-3.62a3.72,3.72,0,0,1,4-3.62A4.63,4.63,0,0,1,32.14,161l-2.3,1.34A2.09,2.09,0,0,0,27.78,161c-.85,0-1.27.43-1.27.91s.29.91,2.14,1.47,3.82,1.18,3.82,3.69c0,2.3-1.83,3.66-4.41,3.66A4.68,4.68,0,0,1,23.3,167.76Z"/><path class="cls-3" d="M39.7,164.51a6.19,6.19,0,1,1,6.19,6.19A6.14,6.14,0,0,1,39.7,164.51Zm9.66,0a3.47,3.47,0,1,0-3.47,3.54A3.39,3.39,0,0,0,49.36,164.51Z"/><path class="cls-3" d="M67,167.84v2.62h-7v-11.9h2.72v9.28Z"/><path class="cls-3" d="M82,168.59H77.58l-.6,1.87H74l4-11.9h3.47l4,11.9h-3ZM81.18,166l-1.39-4.37L78.39,166Z"/><path class="cls-3" d="M100.19,161.18H97.13v9.28H94.41v-9.28H91.35v-2.62h8.84Z"/><path class="cls-3" d="M110.56,158.56v11.9h-2.72v-11.9Z"/><path class="cls-3" d="M118.55,164.51a6.19,6.19,0,1,1,6.18,6.19A6.14,6.14,0,0,1,118.55,164.51Zm9.65,0a3.47,3.47,0,1,0-3.47,3.54A3.39,3.39,0,0,0,128.2,164.51Z"/><path class="cls-3" d="M148.26,158.56v11.9h-2L141.63,164v6.46h-2.72v-11.9h2l4.59,6.46v-6.46Z"/><path class="cls-2" d="M71.91,189.13l.84-.49a2.65,2.65,0,0,0,2.81,1.93c1.49,0,2.31-.71,2.31-1.76s-1-1.5-2.41-2-3.13-1-3.13-2.76a2.73,2.73,0,0,1,3-2.68,3.43,3.43,0,0,1,3.23,2.11l-.82.46a2.48,2.48,0,0,0-2.41-1.62c-1.18,0-2,.61-2,1.69s.84,1.4,2.17,1.84c1.78.59,3.37,1.09,3.37,2.91s-1.34,2.75-3.3,2.75A3.59,3.59,0,0,1,71.91,189.13Z"/><path class="cls-2" d="M87.19,185.25v4.25c0,1.2.66,1.1,2,1.05v.81c-1.89.28-2.94-.18-2.94-1.86v-4.25H84.8v-.89h1.47v-1.69l.92-.28v2h2v.89Z"/><path class="cls-2" d="M102.6,184.36v7h-.93V190a3.27,3.27,0,0,1-2.83,1.54,3.67,3.67,0,0,1,0-7.34,3.24,3.24,0,0,1,2.83,1.54v-1.37Zm-.93,3.5a2.76,2.76,0,1,0-2.76,2.77A2.73,2.73,0,0,0,101.67,187.86Z"/><path class="cls-2" d="M111.57,185.25v4.25c0,1.2.66,1.1,2,1.05v.81c-1.89.28-2.94-.18-2.94-1.86v-4.25h-1.47v-.89h1.47v-1.69l.93-.28v2h2v.89Z"/><path class="cls-2" d="M120.23,182.2a.68.68,0,0,1,1.35,0,.68.68,0,0,1-1.35,0Zm.21,2.16h.93v7h-.93Z"/><path class="cls-2" d="M128.23,187.86a3.68,3.68,0,1,1,3.68,3.67A3.63,3.63,0,0,1,128.23,187.86Zm6.44,0a2.76,2.76,0,1,0-2.76,2.77A2.74,2.74,0,0,0,134.67,187.86Z"/><path class="cls-2" d="M148.47,187.06v4.3h-.92v-4.3a1.77,1.77,0,0,0-1.91-2c-1.23,0-2.27.73-2.27,2.61v3.67h-.92v-7h.92v1.09a2.78,2.78,0,0,1,5.1,1.61Z"/></g></g></svg>