<svg xmlns="http://www.w3.org/2000/svg" viewBox="0 0 140 190.03"><defs><style>.cls-1{fill:#4e5d96;}.cls-2{fill:#f8a0b8;}</style></defs><g id="Layer_2" data-name="Layer 2"><g id="Layer_1-2" data-name="Layer 1"><path class="cls-1" d="M19.05,158.18a1.53,1.53,0,1,1,1.53,1.53A1.55,1.55,0,0,1,19.05,158.18Zm.26,2.28h2.55V169H19.31Z"/><path class="cls-1" d="M36.7,166.41c0,2-1.7,2.79-3.54,2.79a3.72,3.72,0,0,1-3.65-2l2.21-1.26a1.39,1.39,0,0,0,1.44,1c.61,0,.92-.19.92-.53,0-.93-4.18-.44-4.18-3.38,0-1.85,1.56-2.79,3.33-2.79A3.72,3.72,0,0,1,36.54,162l-2.17,1.17a1.23,1.23,0,0,0-1.14-.74c-.44,0-.71.17-.71.47C32.52,163.91,36.7,163.27,36.7,166.41Z"/><path class="cls-1" d="M43.92,164.71a4.51,4.51,0,1,1,4.51,4.49A4.46,4.46,0,0,1,43.92,164.71Zm6.46,0a2,2,0,1,0-2,2A1.91,1.91,0,0,0,50.38,164.71Z"/><path class="cls-1" d="M60.84,156.55h2.55V169H60.84Z"/><path class="cls-1" d="M80.44,160.46V169H77.89v-.8a3.19,3.19,0,0,1-2.54,1,4.51,4.51,0,0,1,0-9,3.19,3.19,0,0,1,2.54,1v-.8Zm-2.55,4.25a2,2,0,1,0-2,2.07A1.94,1.94,0,0,0,77.89,164.71Z"/><path class="cls-1" d="M92,162.91v3c0,.73.63.8,1.75.73V169c-3.33.34-4.3-.66-4.3-3v-3H88.09v-2.45h1.36v-1.61l2.55-.77v2.38h1.75v2.45Z"/><path class="cls-1" d="M101.4,158.18a1.53,1.53,0,1,1,1.53,1.53A1.55,1.55,0,0,1,101.4,158.18Zm.25,2.28h2.55V169h-2.55Z"/><path class="cls-1" d="M112.11,164.71a4.51,4.51,0,1,1,4.5,4.49A4.45,4.45,0,0,1,112.11,164.71Zm6.46,0a2,2,0,1,0-2,2A1.91,1.91,0,0,0,118.57,164.71Z"/><path class="cls-1" d="M137.18,163.74V169h-2.55v-4.84a1.4,1.4,0,0,0-1.48-1.55c-.93,0-1.58.54-1.58,1.75V169H129v-8.5h2.55v.8a2.91,2.91,0,0,1,2.43-1A3.18,3.18,0,0,1,137.18,163.74Z"/><path class="cls-2" d="M67.64,188c0,1.19-1,2-2.54,2a2.75,2.75,0,0,1-2.7-1.61l.79-.47a1.91,1.91,0,0,0,1.91,1.18c.83,0,1.62-.29,1.62-1.12,0-1.74-4.09-.74-4.09-3.32a2.16,2.16,0,0,1,2.39-2,2.58,2.58,0,0,1,2.45,1.43l-.77.44a1.72,1.72,0,0,0-1.68-1c-.73,0-1.47.36-1.47,1.11C63.55,186.43,67.64,185.43,67.64,188Z"/><path class="cls-2" d="M75.91,183.75V188c0,1.2.66,1.1,2,1.05v.81C76,190.14,75,189.68,75,188v-4.25H73.52v-.89H75v-1.68l.92-.28v2h2v.89Z"/><path class="cls-2" d="M91.31,182.86v7h-.92v-1.37A3.24,3.24,0,0,1,87.56,190a3.67,3.67,0,0,1,0-7.34,3.24,3.24,0,0,1,2.83,1.54v-1.37Zm-.92,3.5a2.76,2.76,0,1,0-2.76,2.77A2.74,2.74,0,0,0,90.39,186.36Z"/><path class="cls-2" d="M100.29,183.75V188c0,1.2.65,1.1,2,1.05v.81c-1.89.28-2.94-.18-2.94-1.86v-4.25H97.89v-.89h1.47v-1.68l.93-.28v2h2v.89Z"/><path class="cls-2" d="M109,180.7a.67.67,0,1,1,.67.67A.66.66,0,0,1,109,180.7Zm.21,2.16h.93v7h-.93Z"/><path class="cls-2" d="M116.94,186.36a3.69,3.69,0,1,1,3.69,3.67A3.64,3.64,0,0,1,116.94,186.36Zm6.45,0a2.76,2.76,0,1,0-2.76,2.77A2.74,2.74,0,0,0,123.39,186.36Z"/><path class="cls-2" d="M137.19,185.56v4.3h-.92v-4.3a1.77,1.77,0,0,0-1.91-2c-1.23,0-2.27.73-2.27,2.61v3.67h-.92v-7h.92V184a2.78,2.78,0,0,1,5.1,1.61Z"/><path class="cls-1" d="M138.13,54A69.94,69.94,0,1,0,140,70,70.29,70.29,0,0,0,138.13,54ZM70,125a55,55,0,1,1,54.41-63,56.15,56.15,0,0,1,.59,8A55.06,55.06,0,0,1,70,125Z"/><path class="cls-2" d="M70.5,51A19.4,19.4,0,0,0,60,54.07a19.67,19.67,0,0,0-6.84,7.5A19.51,19.51,0,0,0,70.5,90a19.11,19.11,0,0,0,5-.67A19.5,19.5,0,0,0,70.5,51Z"/></g></g></svg>