<svg xmlns="http://www.w3.org/2000/svg" viewBox="0 0 140 190.03"><defs><style>.cls-1{fill:#4e5d96;}.cls-2{fill:#f8a0b8;}</style></defs><g id="Layer_2" data-name="Layer 2"><g id="Layer_1-2" data-name="Layer 1"><path class="cls-1" d="M5.28,157.06V169H2.56v-11.9Z"/><path class="cls-1" d="M13,166.26l2.35-1.36a2.5,2.5,0,0,0,2.5,1.65c1.29,0,1.61-.51,1.61-1,0-.73-.68-1-2.46-1.52s-3.5-1.34-3.5-3.62a3.72,3.72,0,0,1,4-3.62,4.61,4.61,0,0,1,4.35,2.69l-2.29,1.34a2.08,2.08,0,0,0-2.06-1.37c-.85,0-1.27.42-1.27.9s.29.91,2.14,1.48,3.82,1.17,3.82,3.68c0,2.3-1.83,3.66-4.42,3.66A4.69,4.69,0,0,1,13,166.26Z"/><path class="cls-1" d="M29.42,163a6.19,6.19,0,1,1,6.19,6.19A6.14,6.14,0,0,1,29.42,163Zm9.65,0a3.47,3.47,0,1,0-3.46,3.54A3.38,3.38,0,0,0,39.07,163Z"/><path class="cls-1" d="M56.75,166.34V169h-7v-11.9H52.5v9.28Z"/><path class="cls-1" d="M71.71,167.09H67.29L66.7,169h-3l4-11.9h3.47l4,11.9h-3Zm-.81-2.55-1.4-4.37-1.39,4.37Z"/><path class="cls-1" d="M89.9,159.68H86.84V169H84.12v-9.28H81.06v-2.62H89.9Z"/><path class="cls-1" d="M100.27,157.06V169H97.55v-11.9Z"/><path class="cls-1" d="M108.26,163a6.19,6.19,0,1,1,6.19,6.19A6.14,6.14,0,0,1,108.26,163Zm9.66,0a3.47,3.47,0,1,0-3.47,3.54A3.38,3.38,0,0,0,117.92,163Z"/><path class="cls-1" d="M138,157.06V169h-2l-4.59-6.46V169h-2.72v-11.9h2l4.59,6.46v-6.46Z"/><path class="cls-2" d="M61.62,187.63l.84-.49a2.67,2.67,0,0,0,2.82,1.94c1.48,0,2.31-.72,2.31-1.77s-1-1.5-2.41-2c-1.6-.54-3.14-1-3.14-2.76a2.74,2.74,0,0,1,3-2.69A3.44,3.44,0,0,1,68.29,182l-.83.46a2.47,2.47,0,0,0-2.41-1.62c-1.17,0-2,.62-2,1.69s.84,1.41,2.17,1.84c1.78.59,3.38,1.09,3.38,2.91S67.23,190,65.26,190A3.6,3.6,0,0,1,61.62,187.63Z"/><path class="cls-2" d="M76.91,183.75V188c0,1.2.66,1.1,2,1.05v.81C77,190.14,76,189.68,76,188v-4.25H74.52v-.89H76v-1.68l.92-.28v2h2v.89Z"/><path class="cls-2" d="M92.31,182.86v7h-.92v-1.37A3.24,3.24,0,0,1,88.56,190a3.67,3.67,0,0,1,0-7.34,3.24,3.24,0,0,1,2.83,1.54v-1.37Zm-.92,3.5a2.76,2.76,0,1,0-2.76,2.77A2.74,2.74,0,0,0,91.39,186.36Z"/><path class="cls-2" d="M101.29,183.75V188c0,1.2.65,1.1,2,1.05v.81c-1.89.28-2.94-.18-2.94-1.86v-4.25H98.89v-.89h1.47v-1.68l.93-.28v2h2v.89Z"/><path class="cls-2" d="M110,180.7a.67.67,0,1,1,.67.67A.66.66,0,0,1,110,180.7Zm.21,2.16h.92v7h-.92Z"/><path class="cls-2" d="M117.94,186.36a3.69,3.69,0,1,1,3.69,3.67A3.64,3.64,0,0,1,117.94,186.36Zm6.45,0a2.76,2.76,0,1,0-2.76,2.77A2.74,2.74,0,0,0,124.39,186.36Z"/><path class="cls-2" d="M138.19,185.56v4.3h-.92v-4.3a1.77,1.77,0,0,0-1.91-2c-1.23,0-2.27.73-2.27,2.61v3.67h-.92v-7h.92V184a2.78,2.78,0,0,1,5.1,1.61Z"/><path class="cls-1" d="M138.13,54A69.94,69.94,0,1,0,140,70,70.29,70.29,0,0,0,138.13,54ZM70,125a55,55,0,1,1,54.41-63,56.15,56.15,0,0,1,.59,8A55.06,55.06,0,0,1,70,125Z"/><path class="cls-2" d="M70.5,51A19.4,19.4,0,0,0,60,54.07a19.67,19.67,0,0,0-6.84,7.5A19.51,19.51,0,0,0,70.5,90a19.11,19.11,0,0,0,5-.67A19.5,19.5,0,0,0,70.5,51Z"/></g></g></svg>