<svg xmlns="http://www.w3.org/2000/svg" viewBox="0 0 135.42 139.22"><defs><style>.cls-1{fill:#4e5d96;}.cls-2{fill:#f8a0b8;}</style></defs><g id="Layer_2" data-name="Layer 2"><g id="Layer_1-2" data-name="Layer 1"><path class="cls-1" d="M2.72,106.25v11.9H0v-11.9Z"/><path class="cls-1" d="M10.46,115.45l2.34-1.36a2.5,2.5,0,0,0,2.5,1.64c1.29,0,1.61-.51,1.61-1,0-.73-.68-1-2.46-1.51s-3.5-1.34-3.5-3.62a3.72,3.72,0,0,1,4-3.62,4.61,4.61,0,0,1,4.35,2.69L17,110a2.09,2.09,0,0,0-2.06-1.38c-.85,0-1.27.43-1.27.9s.29.92,2.14,1.48,3.82,1.18,3.82,3.69c0,2.3-1.83,3.66-4.42,3.66A4.68,4.68,0,0,1,10.46,115.45Z"/><path class="cls-1" d="M26.86,112.2a6.19,6.19,0,1,1,6.19,6.19A6.14,6.14,0,0,1,26.86,112.2Zm9.65,0a3.47,3.47,0,1,0-3.46,3.53A3.38,3.38,0,0,0,36.51,112.2Z"/><path class="cls-1" d="M54.2,115.53v2.62h-7v-11.9H50v9.28Z"/><path class="cls-1" d="M69.16,116.28H64.74l-.6,1.87h-3l4-11.9h3.47l4,11.9h-3Zm-.82-2.55L67,109.36l-1.4,4.37Z"/><path class="cls-1" d="M87.34,108.87h-3v9.28H81.57v-9.28H78.51v-2.62h8.83Z"/><path class="cls-1" d="M97.71,106.25v11.9H95v-11.9Z"/><path class="cls-1" d="M105.71,112.2a6.19,6.19,0,1,1,6.18,6.19A6.14,6.14,0,0,1,105.71,112.2Zm9.65,0a3.47,3.47,0,1,0-3.47,3.53A3.39,3.39,0,0,0,115.36,112.2Z"/><path class="cls-1" d="M135.42,106.25v11.9h-2l-4.59-6.46v6.46h-2.72v-11.9h2l4.59,6.46v-6.46Z"/><path class="cls-2" d="M29,136.82l.84-.49a2.66,2.66,0,0,0,2.82,1.93c1.48,0,2.31-.71,2.31-1.76s-1-1.5-2.41-2c-1.6-.53-3.14-1-3.14-2.76a2.74,2.74,0,0,1,3-2.69,3.44,3.44,0,0,1,3.24,2.12l-.83.46A2.47,2.47,0,0,0,32.46,130c-1.17,0-2,.61-2,1.69s.84,1.4,2.18,1.84c1.77.58,3.37,1.09,3.37,2.91s-1.34,2.75-3.31,2.75A3.6,3.6,0,0,1,29,136.82Z"/><path class="cls-2" d="M44.32,132.94v4.24c0,1.21.66,1.11,2,1.06v.81c-1.89.28-2.94-.18-2.94-1.87v-4.24H41.93V132H43.4v-1.68l.92-.28v2h2v.9Z"/><path class="cls-2" d="M59.73,132v7H58.8v-1.38A3.25,3.25,0,0,1,56,139.22a3.67,3.67,0,0,1,0-7.34,3.24,3.24,0,0,1,2.83,1.54V132Zm-.93,3.51A2.76,2.76,0,1,0,56,138.32,2.73,2.73,0,0,0,58.8,135.55Z"/><path class="cls-2" d="M68.7,132.94v4.24c0,1.21.65,1.11,2,1.06v.81c-1.89.28-2.94-.18-2.94-1.87v-4.24H66.3V132h1.47v-1.68l.93-.28v2h2v.9Z"/><path class="cls-2" d="M77.36,129.89a.68.68,0,1,1,.67.67A.68.68,0,0,1,77.36,129.89Zm.21,2.15h.93v7h-.93Z"/><path class="cls-2" d="M85.35,135.55A3.69,3.69,0,1,1,89,139.22,3.64,3.64,0,0,1,85.35,135.55Zm6.45,0A2.76,2.76,0,1,0,89,138.32,2.74,2.74,0,0,0,91.8,135.55Z"/><path class="cls-2" d="M105.6,134.75v4.3h-.92v-4.3a1.77,1.77,0,0,0-1.91-2c-1.23,0-2.27.73-2.27,2.61v3.67h-.92v-7h.92v1.1a2.58,2.58,0,0,1,2.36-1.26A2.61,2.61,0,0,1,105.6,134.75Z"/><circle class="cls-2" cx="99.44" cy="26.72" r="23.5"/><path class="cls-1" d="M102.94,69.56h-71V23.85L67.44,0l35.5,23.85Zm-64-7h57v-35L67.44,8.43,38.94,27.58Z"/><polygon class="cls-1" points="102.94 85.23 31.94 85.23 31.94 69.06 38.94 69.06 38.94 78.23 95.94 78.23 95.94 69.06 102.94 69.06 102.94 85.23"/></g></g></svg>