<svg xmlns="http://www.w3.org/2000/svg" viewBox="0 0 135.42 150.59"><defs><style>.cls-1{fill:#4e5d96;}.cls-2{fill:#f8a0b8;}</style></defs><g id="Layer_2" data-name="Layer 2"><g id="Layer_1-2" data-name="Layer 1"><path class="cls-1" d="M2.72,117.63v11.9H0v-11.9Z"/><path class="cls-1" d="M10.45,126.82l2.35-1.36a2.5,2.5,0,0,0,2.5,1.65c1.29,0,1.61-.51,1.61-1,0-.73-.68-1-2.46-1.51S11,123.29,11,121a3.72,3.72,0,0,1,4-3.62,4.6,4.6,0,0,1,4.35,2.68L17,121.42A2.09,2.09,0,0,0,14.94,120c-.85,0-1.27.43-1.27.9s.29.92,2.14,1.48,3.82,1.17,3.82,3.69c0,2.29-1.83,3.65-4.42,3.65A4.69,4.69,0,0,1,10.45,126.82Z"/><path class="cls-1" d="M26.86,123.58a6.19,6.19,0,1,1,6.19,6.18A6.13,6.13,0,0,1,26.86,123.58Zm9.65,0a3.47,3.47,0,1,0-3.46,3.53A3.38,3.38,0,0,0,36.51,123.58Z"/><path class="cls-1" d="M54.2,126.91v2.62h-7v-11.9H50v9.28Z"/><path class="cls-1" d="M69.16,127.66H64.74l-.6,1.87h-3l4-11.9h3.47l4,11.9h-3Zm-.82-2.55L67,120.74l-1.4,4.37Z"/><path class="cls-1" d="M87.34,120.24h-3v9.29H81.57v-9.29H78.51v-2.61h8.83Z"/><path class="cls-1" d="M97.71,117.63v11.9H95v-11.9Z"/><path class="cls-1" d="M105.71,123.58a6.19,6.19,0,1,1,6.18,6.18A6.13,6.13,0,0,1,105.71,123.58Zm9.65,0a3.47,3.47,0,1,0-3.47,3.53A3.39,3.39,0,0,0,115.36,123.58Z"/><path class="cls-1" d="M135.42,117.63v11.9h-2l-4.59-6.46v6.46h-2.72v-11.9h2l4.59,6.46v-6.46Z"/><path class="cls-2" d="M29,148.2l.84-.49a2.67,2.67,0,0,0,2.82,1.93c1.48,0,2.31-.71,2.31-1.76s-1-1.5-2.41-2c-1.6-.53-3.14-1-3.14-2.76a2.74,2.74,0,0,1,3-2.69,3.43,3.43,0,0,1,3.24,2.12l-.83.46a2.48,2.48,0,0,0-2.41-1.63c-1.17,0-2,.62-2,1.7s.84,1.4,2.17,1.83c1.78.59,3.38,1.1,3.38,2.92s-1.34,2.74-3.31,2.74A3.61,3.61,0,0,1,29,148.2Z"/><path class="cls-2" d="M44.32,144.32v4.24c0,1.21.66,1.11,2,1.05v.82c-1.89.28-2.94-.19-2.94-1.87v-4.24H41.93v-.9H43.4v-1.68l.92-.28v2h2v.9Z"/><path class="cls-2" d="M59.73,143.42v7H58.8v-1.38A3.24,3.24,0,0,1,56,150.59a3.67,3.67,0,0,1,0-7.34,3.27,3.27,0,0,1,2.83,1.54v-1.37Zm-.93,3.5A2.76,2.76,0,1,0,56,149.7,2.73,2.73,0,0,0,58.8,146.92Z"/><path class="cls-2" d="M68.7,144.32v4.24c0,1.21.65,1.11,2,1.05v.82c-1.89.28-2.94-.19-2.94-1.87v-4.24H66.3v-.9h1.47v-1.68l.93-.28v2h2v.9Z"/><path class="cls-2" d="M77.36,141.26a.68.68,0,1,1,.67.68A.68.68,0,0,1,77.36,141.26Zm.21,2.16h.93v7h-.93Z"/><path class="cls-2" d="M85.35,146.92A3.69,3.69,0,1,1,89,150.59,3.65,3.65,0,0,1,85.35,146.92Zm6.45,0A2.76,2.76,0,1,0,89,149.7,2.74,2.74,0,0,0,91.8,146.92Z"/><path class="cls-2" d="M105.6,146.13v4.3h-.92v-4.3a1.77,1.77,0,0,0-1.91-2c-1.23,0-2.27.73-2.27,2.61v3.67h-.92v-7h.92v1.09a2.78,2.78,0,0,1,5.1,1.62Z"/><circle class="cls-2" cx="97.3" cy="23.5" r="23.5"/><path class="cls-1" d="M93.06,97.09H41.82L33.68,21.94H101.2Zm-44.95-7H86.78L93.4,28.94H41.48Z"/><rect class="cls-1" x="38.57" y="43.5" width="56.39" height="7"/></g></g></svg>