<?xml version="1.0" encoding="UTF-8"?>
<svg width="88px" height="98px" viewBox="0 0 88 98" version="1.1" xmlns="http://www.w3.org/2000/svg" xmlns:xlink="http://www.w3.org/1999/xlink">
    <!-- Generator: Sketch 63.1 (92452) - https://sketch.com -->
    <title>Glass-with-Circle</title>
    <desc>Created with Sketch.</desc>
    <g id="Page-1" stroke="none" stroke-width="1" fill="none" fill-rule="evenodd">
        <g id="Asset-10" transform="translate(-33.000000, 0.000000)">
            <g id="Glass-with-Circle" transform="translate(33.680000, 0.114096)">
                <polygon id="Path" points="14.43 89.9759038 53.1 89.9759038 57.38 50.3959038 10.14 50.3959038"></polygon>
                <path d="M9.38,43.3859038 L51.32,43.3859038 C46.0092391,40.1241395 42.2109437,34.8870959 40.76,28.8259038 L7.76,28.8259038 L9.38,43.3859038 Z" id="Path"></path>
                <path d="M87.1200197,23.3859038 C87.058554,10.7555318 77.0243962,0.432725544 64.4008442,0.0131954797 C51.7772921,-0.406334585 41.0798976,9.22748098 40.18,21.8259038 L67.52,21.8259038 L64.81,46.8859038 C77.3217604,46.251526 87.136072,35.9137259 87.1200197,23.3859038 L87.1200197,23.3859038 Z" id="Path" fill="#F8A0B8" fill-rule="nonzero"></path>
                <path d="M51.32,43.3859038 L58.17,43.3859038 L59.72,28.8259038 L40.72,28.8259038 C42.1806233,34.8938428 45.9940973,40.1319731 51.32,43.3859038 Z" id="Path" fill="#F8A0B8" fill-rule="nonzero"></path>
                <path d="M61.32,46.7659038 L61.32,50.3859038 L57.39,50.3859038 L53.1,89.9759038 L14.43,89.9759038 L10.14,50.3859038 L4.89,50.3859038 L4.89,43.3859038 L9.38,43.3859038 L7.8,28.8259038 L40.8,28.8259038 C40.3770429,27.0434162 40.1622743,25.2178834 40.16,23.3859038 C40.16,22.8659038 40.18,22.3459038 40.22,21.8259038 L0,21.8259038 L8.14,96.9759038 L59.38,96.9759038 L64.81,46.8859038 C64.42,46.8859038 64.02,46.8859038 63.62,46.8859038 C62.8517935,46.884968 62.0841329,46.8449162 61.32,46.7659038 L61.32,46.7659038 Z" id="Path" fill="#4E5D96" fill-rule="nonzero"></path>
                <path d="M40.18,21.8259038 C40.14,22.3459038 40.12,22.8659038 40.12,23.3859038 C40.1222743,25.2178834 40.3370429,27.0434162 40.76,28.8259038 L59.76,28.8259038 L58.14,43.3859038 L61.32,43.3859038 L61.32,46.7659038 C62.0841329,46.8449162 62.8517935,46.884968 63.62,46.8859038 C64.02,46.8859038 64.42,46.8859038 64.81,46.8859038 L67.52,21.8859038 L40.18,21.8259038 Z" id="Path" fill="#000000" fill-rule="nonzero"></path>
                <path d="M51.32,43.3859038 L9.38,43.3859038 L10.14,50.3859038 L57.39,50.3859038 L57.84,46.1659038 C55.5372065,45.5783584 53.3382606,44.640771 51.32,43.3859038 L51.32,43.3859038 Z" id="Path" fill="#4E5D96" fill-rule="nonzero"></path>
                <path d="M57.84,46.1659038 L58.14,43.3859038 L51.32,43.3859038 C53.3382606,44.640771 55.5372065,45.5783584 57.84,46.1659038 L57.84,46.1659038 Z" id="Path" fill="#000000" fill-rule="nonzero"></path>
                <path d="M57.39,50.3859038 L61.32,50.3859038 L61.32,46.7659038 C60.1598477,46.652907 59.009902,46.4523351 57.88,46.1659038 L57.39,50.3859038 Z" id="Path" fill="#4E5D96" fill-rule="nonzero"></path>
                <polygon id="Path" fill="#4E5D96" fill-rule="nonzero" points="4.89 43.3959038 4.89 50.3959038 10.14 50.3959038 9.38 43.3959038"></polygon>
                <path d="M61.32,46.7659038 L61.32,43.3859038 L58.14,43.3859038 L57.84,46.1659038 C58.9830073,46.45433 60.1464,46.6549149 61.32,46.7659038 Z" id="Path" fill="#000000" fill-rule="nonzero"></path>
            </g>
        </g>
    </g>
</svg>